<?xml version="1.0" encoding="UTF-8"?>
<svg id="Layer_1" data-name="Layer 1" xmlns="http://www.w3.org/2000/svg" viewBox="0 0 566.93 187.36">
  <defs>
    <style>
      .cls-1 {
        fill: #ed145b;
      }

      .cls-2 {
        fill: #a7a9ac;
      }
    </style>
  </defs>
  <g>
    <path class="cls-2" d="M17.52,46.86H1.85V.6h12.12c3.82,0,6.8.51,8.94,1.54s3.77,2.44,4.9,4.24,1.69,3.88,1.69,6.24c0,4.55-2.35,7.8-7.05,9.77,3.38.64,6.07,2.03,8.06,4.17s3,4.7,3,7.68c0,2.36-.61,4.47-1.82,6.32s-3,3.37-5.35,4.54-5.29,1.75-8.82,1.75ZM14.17,6.49h-5.7v13.91h4.4c3.53,0,6.04-.67,7.53-2.02,1.49-1.35,2.24-3.09,2.24-5.23,0-4.44-2.83-6.66-8.48-6.66ZM14.67,26.29h-6.19v14.67h6.52c3.62,0,6.08-.28,7.37-.84s2.33-1.44,3.11-2.63,1.18-2.47,1.18-3.84-.41-2.7-1.24-3.87-2-2.04-3.53-2.62-3.93-.86-7.22-.86Z"/>
    <path class="cls-2" d="M41.52.6h6.62v46.26h-6.62V.6Z"/>
    <path class="cls-2" d="M59.84.6h6.62v40.23h20.83v6.03h-27.45V.6Z"/>
    <path class="cls-2" d="M94.51.6h6.62v40.23h20.83v6.03h-27.45V.6Z"/>
    <path class="cls-2" d="M129.17.6h26.23v5.89h-19.6v14.11h18.94v5.93h-18.94v14.37h20.23v5.89h-26.85V.6Z"/>
    <path class="cls-2" d="M164.57,46.79V.6h15.6c6.29,0,11.27.94,14.93,2.83s6.58,4.66,8.74,8.33,3.25,7.66,3.25,11.99c0,3.09-.6,6.05-1.79,8.87s-2.89,5.31-5.1,7.45c-2.25,2.21-4.87,3.87-7.85,5-1.74.68-3.34,1.14-4.8,1.37s-4.24.35-8.34.35h-14.64ZM179.47,6.49h-8.28v34.41h8.48c3.31,0,5.88-.23,7.72-.68s3.36-1.03,4.59-1.72,2.35-1.55,3.36-2.57c3.27-3.31,4.9-7.49,4.9-12.55s-1.68-9.02-5.03-12.15c-1.24-1.17-2.65-2.13-4.26-2.88s-3.12-1.25-4.55-1.49-3.74-.36-6.92-.36Z"/>
    <path class="cls-2" d="M242.96.6h8.28l-20.06,21.96,25,24.3h-9.04l-23.64-22.85v22.85h-6.62V.6h6.62v21.16L242.96.6Z"/>
    <path class="cls-2" d="M294.87.6h6.66v26.26c0,3.55-.26,6.24-.78,8.05s-1.16,3.32-1.92,4.52-1.69,2.28-2.8,3.23c-3.66,3.16-8.45,4.74-14.37,4.74s-10.86-1.57-14.5-4.7c-1.1-.97-2.04-2.06-2.8-3.26s-1.39-2.68-1.89-4.42-.75-4.48-.75-8.21V.6h6.66v26.26c0,4.35.5,7.37,1.49,9.07s2.51,3.06,4.54,4.09,4.43,1.54,7.19,1.54c3.93,0,7.13-1.03,9.6-3.08,1.3-1.1,2.24-2.41,2.81-3.91s.86-4.07.86-7.72V.6Z"/>
    <path class="cls-2" d="M348.88.6h6.29v46.26h-5.7l-30.93-35.63v35.63h-6.23V.6h5.36l31.19,35.93V.6Z"/>
    <path class="cls-2" d="M377.95,27.47l-5.03-3.06c-3.16-1.93-5.4-3.82-6.74-5.69-1.34-1.87-2-4.01-2-6.44,0-3.64,1.26-6.6,3.79-8.87s5.81-3.41,9.85-3.41,7.41,1.08,10.63,3.25v7.52c-3.33-3.21-6.92-4.81-10.76-4.81-2.16,0-3.94.5-5.33,1.5s-2.09,2.28-2.09,3.84c0,1.39.51,2.68,1.54,3.89,1.02,1.21,2.67,2.48,4.94,3.81l5.06,2.99c5.64,3.37,8.46,7.66,8.46,12.87,0,3.71-1.24,6.72-3.73,9.04s-5.71,3.48-9.69,3.48c-4.57,0-8.73-1.4-12.48-4.21v-8.41c3.58,4.53,7.72,6.8,12.42,6.8,2.08,0,3.8-.58,5.18-1.73,1.38-1.15,2.07-2.6,2.07-4.34,0-2.82-2.03-5.49-6.09-8.01Z"/>
    <path class="cls-2" d="M395.04.53h38.64v5.89h-16.13v40.43h-6.66V6.42h-15.86V.53Z"/>
    <path class="cls-2" d="M478.12.6h6.29v46.26h-5.7l-30.93-35.63v35.63h-6.23V.6h5.36l31.19,35.93V.6Z"/>
    <path class="cls-2" d="M495.74.6h26.23v5.89h-19.6v14.11h18.94v5.93h-18.94v14.37h20.23v5.89h-26.85V.6Z"/>
    <path class="cls-2" d="M531.27,46.86V.6h11.59c4.68,0,8.39,1.16,11.14,3.48s4.12,5.45,4.12,9.4c0,2.69-.67,5.02-2.02,6.99s-3.28,3.43-5.79,4.4c1.48.97,2.92,2.3,4.34,3.97s3.4,4.6,5.96,8.77c1.61,2.63,2.9,4.6,3.87,5.93l2.45,3.31h-7.88l-2.02-3.05c-.07-.11-.2-.3-.4-.56l-1.29-1.82-2.05-3.38-2.22-3.61c-1.37-1.9-2.62-3.41-3.76-4.53-1.14-1.12-2.17-1.93-3.08-2.43-.92-.49-2.46-.74-4.62-.74h-1.72v20.13h-6.62ZM539.88,6.23h-1.99v14.6h2.52c3.36,0,5.66-.29,6.9-.86s2.22-1.44,2.91-2.6c.7-1.16,1.04-2.48,1.04-3.96s-.39-2.78-1.16-3.96-1.86-2.01-3.26-2.5-3.73-.73-6.97-.73Z"/>
    <path d="M26.13,67.82c5.7,0,11.35,1.27,16.95,3.81v8.18c-5.61-2.85-11.13-4.27-16.56-4.27-3.38,0-6.38.67-9.01,2.02s-4.66,3.28-6.11,5.81-2.17,5.35-2.17,8.46c0,4.72,1.57,8.53,4.72,11.41s7.29,4.32,12.43,4.32c1.41,0,2.76-.12,4.06-.36s2.83-.71,4.62-1.39v-7.68h-7.65v-6.99h16.59v19.07c-2.27,1.59-5.01,2.83-8.2,3.73s-6.51,1.34-9.95,1.34c-4.88,0-9.3-1-13.26-3.01s-7.05-4.82-9.27-8.44-3.33-7.66-3.33-12.12,1.12-8.62,3.36-12.28,5.36-6.51,9.37-8.54,8.47-3.05,13.39-3.05Z"/>
    <path d="M70.2,68.41c4.35,0,7.89,1.2,10.63,3.61s4.11,5.54,4.11,9.4c0,2.63-.68,4.92-2.04,6.87s-3.37,3.49-6.04,4.62c1.48.79,2.79,1.88,3.94,3.25s2.57,3.68,4.27,6.92c2.83,5.61,4.92,9.47,6.29,11.59h-9.97c-.68-1.02-1.61-2.64-2.78-4.87-2.56-4.92-4.44-8.24-5.63-9.95s-2.34-2.92-3.44-3.64-2.37-1.08-3.81-1.08h-3.25v19.54h-8.94v-46.26h16.66ZM68.18,88.15c2.34,0,4.18-.58,5.51-1.75s2-2.77,2-4.8-.66-3.7-1.99-4.75-3.21-1.57-5.66-1.57h-5.56v12.88h5.7Z"/>
    <path d="M127.12,68.41v6.99h-20.96v12.15h20.07v6.99h-20.07v13.15h21.42v6.99h-30.36v-46.26h29.9Z"/>
    <path d="M174.31,68.41v6.99h-16.42v39.27h-8.94v-39.27h-16.42v-6.99h41.79Z"/>
    <path d="M190.04,68.41v19.47h24.01v-19.47h8.94v46.26h-8.94v-19.54h-24.01v19.54h-8.94v-46.26h8.94Z"/>
    <path d="M263.08,68.41v6.99h-20.96v12.15h20.07v6.99h-20.07v13.15h21.42v6.99h-30.36v-46.26h29.9Z"/>
    <path d="M293.28,89.9l17.57-21.48h3.62v46.26h-3.61v-41.03l-17.6,21.62-17.67-21.62v41.03h-3.58v-46.26h3.58l17.68,21.48Z"/>
    <path d="M343.35,68.08l21.39,46.59h-3.75l-7.32-15.99h-22.62l-7.29,15.99h-3.75l21.39-46.59h1.96ZM352.3,95.7l-9.97-21.79-9.93,21.79h19.9Z"/>
    <path d="M370.33,68.41h11.85c4.97,0,8.76,1.08,11.39,3.23s3.94,5.06,3.94,8.73c0,5.34-2.94,9.1-8.81,11.26,1.52.73,3.58,3.08,6.16,7.05l10.46,15.99h-4.23l-8.06-12.68c-2.69-4.24-4.79-6.88-6.29-7.93-1.5-1.05-3.69-1.57-6.59-1.57h-6.26v22.19h-3.58v-46.26ZM373.91,71.39v18.11h7.68c3.91,0,6.89-.79,8.96-2.37s3.1-3.81,3.1-6.71-1.05-5.07-3.15-6.66-5.11-2.38-9.04-2.38h-7.55Z"/>
    <path d="M412.72,68.41v46.26h-3.58v-46.26h3.58Z"/>
    <path d="M441.57,68.08l21.39,46.59h-3.75l-7.32-15.99h-22.62l-7.29,15.99h-3.75l21.39-46.59h1.96ZM450.52,95.7l-9.97-21.79-9.93,21.79h19.9Z"/>
    <path d="M510.17,68.41v46.26h-2.94l-35.17-40.43v40.43h-3.58v-46.26h3.03l35.08,40.43v-40.43h3.58Z"/>
    <path d="M562.46,68.41v46.26h-2.94l-35.17-40.43v40.43h-3.58v-46.26h3.03l35.08,40.43v-40.43h3.58Z"/>
    <path d="M9.9,136.23l15.2,18.25,15.2-18.25h7.98v46.26h-8.94v-32.48h-.26l-13.38,16.29h-1.26l-13.38-16.29h-.26v32.48H1.85v-46.26h8.05Z"/>
    <path d="M81.92,136.23l20.43,46.26h-9.44l-4.8-11.26h-20.56l-4.47,11.26h-9.37l19.07-46.26h9.14ZM70.27,164.44h14.93l-7.81-18.31-7.12,18.31Z"/>
    <path d="M115.73,136.23v26.92c0,2.76.41,4.96,1.24,6.59s2.18,2.98,4.06,4.04,4.06,1.59,6.56,1.59c2.74,0,5.06-.5,6.97-1.51s3.31-2.37,4.19-4.11,1.32-4.13,1.32-7.2v-26.32h8.94v27.48c0,6.23-1.87,11.01-5.6,14.35s-9.01,5.02-15.83,5.02c-4.28,0-8-.76-11.14-2.28s-5.55-3.73-7.2-6.61c-1.66-2.88-2.48-6.26-2.48-10.15v-27.81h8.97Z"/>
    <path d="M175.53,136.23c4.35,0,7.89,1.2,10.63,3.61s4.11,5.54,4.11,9.4c0,2.63-.68,4.92-2.04,6.87s-3.37,3.49-6.04,4.62c1.48.79,2.79,1.88,3.94,3.25s2.57,3.68,4.27,6.92c2.83,5.61,4.92,9.47,6.29,11.59h-9.97c-.68-1.02-1.61-2.64-2.78-4.87-2.56-4.92-4.44-8.24-5.63-9.95s-2.34-2.92-3.44-3.64-2.37-1.08-3.81-1.08h-3.25v19.54h-8.94v-46.26h16.66ZM173.51,155.96c2.34,0,4.18-.58,5.51-1.75s2-2.77,2-4.8-.66-3.7-1.99-4.75-3.21-1.57-5.66-1.57h-5.56v12.88h5.7Z"/>
    <path d="M215.3,135.63c4.5,0,8.84,1.13,13.01,3.38v7.95c-4.79-2.89-9.04-4.34-12.75-4.34-2.25,0-4.01.44-5.28,1.31s-1.9,2.04-1.9,3.49c0,1.74,1.18,3.36,3.54,4.83.66.44,3.21,1.68,7.65,3.71,3.8,1.79,6.53,3.77,8.21,5.96s2.52,4.81,2.52,7.88c0,3.97-1.43,7.18-4.29,9.62s-6.56,3.66-11.11,3.66c-2.96,0-5.5-.33-7.63-.98s-4.52-1.77-7.17-3.36v-8.81c4.94,4.11,9.6,6.16,13.97,6.16,2.19,0,3.95-.47,5.3-1.42s2.02-2.21,2.02-3.77c0-2.14-1.17-3.89-3.51-5.23-1.94-1.06-4.45-2.33-7.52-3.81-3.64-1.66-6.36-3.59-8.16-5.79s-2.7-4.77-2.7-7.68c0-3.89,1.45-6.98,4.34-9.29s6.71-3.46,11.46-3.46Z"/>
    <path d="M268.02,136.23v6.99h-20.96v12.15h20.07v6.99h-20.07v13.15h21.42v6.99h-30.36v-46.26h29.9Z"/>
    <path d="M315.2,136.23v6.99h-16.42v39.27h-8.94v-39.27h-16.42v-6.99h41.79Z"/>
    <path d="M330.93,136.23v19.47h24.01v-19.47h8.94v46.26h-8.94v-19.54h-24.01v19.54h-8.94v-46.26h8.94Z"/>
  </g>
  <circle class="cls-1" cx="402.46" cy="160.34" r="27.02"/>
</svg>